<svg xmlns="http://www.w3.org/2000/svg" width="116.42" height="15.48" viewBox="0 0 116.42 15.48">
  <g id="그룹_1" data-name="그룹 1" transform="translate(-626.08 -471.4)">
    <path id="패스_1" data-name="패스 1" d="M7.12-14.12c-3.34,0-6.02,1.9-6.02,6.22v2.58C1.1-1.02,3.86.74,7,.74a7.379,7.379,0,0,0,5.42-1.92L11.06-3.14A5.3,5.3,0,0,1,7.1-1.64c-1.8,0-3.42-1.14-3.42-4.2V-7.32c0-3.58,1.72-4.44,3.44-4.44a5,5,0,0,1,3.58,1.2l1.38-1.96A7.2,7.2,0,0,0,7.12-14.12Zm12.06.22h-2.3L11.52.52h2.62l1.42-3.96h4.86L21.82.52H24.6Zm-1.9,5.38c.36-1.02.48-1.42.7-2.22.2.7.38,1.26.72,2.22l.98,2.94H16.3ZM24.58.52h2.56V-5.02h2.88c3.34,0,4.94-2,4.94-4.34v-.42c0-2.36-1.48-4.12-4.94-4.12H24.58ZM29.9-11.76c1.46,0,2.48.42,2.48,2v.36c0,1.68-1.02,2.22-2.7,2.22H27.14v-4.58Zm5.4-2.14V.52h9.42V-1.6H37.84V-5.82h6.32V-7.9H37.84v-3.88h6.74V-13.9ZM53.38.52h2.78c-.96-2.1-1.86-4.16-2.82-6.26A3.651,3.651,0,0,0,55.58-9.2v-.74c0-2.3-1.66-3.96-4.66-3.96H45.46V.52h2.56V-5.26h2.94ZM50.6-11.76c1.76,0,2.44.78,2.44,1.9v.6c0,1.1-.68,1.86-2.66,1.86H48.02v-4.36ZM61.32-1.56a6.382,6.382,0,0,1-4.04-1.4L56.04-.92A8.531,8.531,0,0,0,61.2.74c2.8,0,5.3-1,5.3-4.22v-.26c0-1.98-1.14-3.38-4.54-4.14-1.7-.38-3.12-.58-3.12-1.98v-.24c0-.78.84-1.74,2.66-1.74a5.332,5.332,0,0,1,3.26.9l1.2-1.98a7.871,7.871,0,0,0-4.5-1.2c-3.9,0-5.16,2.32-5.16,4.06v.26c0,3.34,2.7,3.76,5.1,4.28,1.64.36,2.54.86,2.54,2.02v.22C63.94-2.3,63.14-1.56,61.32-1.56Z" transform="translate(676 486)"/>
    <path id="패스_2" data-name="패스 2" d="M4.96-.08A6.24,6.24,0,0,1,1.5-1.24l-.42.68A6.708,6.708,0,0,0,5.04.68c2,0,3.84-.96,3.84-2.78v-.36c0-1.9-1.08-2.44-3.72-2.94-1.7-.32-3-.72-3-2.02v-.26c0-1.18,1-1.92,2.8-1.92a5.6,5.6,0,0,1,3.28.84l.36-.62a6.007,6.007,0,0,0-3.56-.98c-2.44,0-3.7,1.2-3.7,2.66v.32c0,1.68,1.42,2.34,3.42,2.72,2.56.48,3.36.84,3.36,2.26v.26C8.12-1.06,7-.08,4.96-.08ZM10.8-2.32C10.8.16,11.9.6,13.38.6A6.119,6.119,0,0,0,15.02.34l-.14-.7a5.482,5.482,0,0,1-1.58.22c-1.36,0-1.64-.82-1.64-2.4V-9.42h3.02v-.72H11.66V-12.9H10.8v2.76H8.94v.72H10.8Zm5.14-.54c0,1.84.88,3.54,3.68,3.54a4.107,4.107,0,0,0,3.44-1.84V.52h.84V-10.14h-.86V-2.8A3.339,3.339,0,0,1,19.58-.08C17.1-.08,16.8-1.86,16.8-3.1v-7.04h-.86ZM32.98.52h.84V-14.6h-.86v5.76a4.013,4.013,0,0,0-3.3-1.52c-2.48,0-4.24,1.58-4.24,4.54v1.96C25.42-.92,26.94.68,29.5.68a3.849,3.849,0,0,0,3.48-1.96Zm0-3.9A3.331,3.331,0,0,1,29.6-.1c-2.22,0-3.32-1.36-3.32-3.88V-5.7c0-2.5,1.34-3.88,3.34-3.88S32.98-8.38,32.98-7Zm2.92-6.76V.52h.86V-10.14Zm-.08-3.5v1.18h1.02v-1.18Zm6.88,3.28c-2.76,0-4.38,1.76-4.38,4.82v1.4C38.32-1.1,39.94.68,42.7.68s4.38-1.78,4.38-4.82v-1.4C47.08-8.58,45.46-10.36,42.7-10.36Zm0,10.3c-2.16,0-3.52-1.32-3.52-4.08v-1.4c0-2.76,1.36-4.08,3.52-4.08s3.52,1.32,3.52,4.08v1.4C46.22-1.38,44.86-.06,42.7-.06Zm5.34.94h1.6V-.84h-1.6Z" transform="translate(625 486)"/>
  </g>
</svg>
